<?xml version="1.0" encoding="utf-8"?>
<!-- Generator: Adobe Illustrator 21.0.0, SVG Export Plug-In . SVG Version: 6.00 Build 0)  -->
<svg version="1.1" id="Слой_1" xmlns="http://www.w3.org/2000/svg" xmlns:xlink="http://www.w3.org/1999/xlink" x="0px" y="0px"
	 viewBox="0 0 1000 1000" style="enable-background:new 0 0 1000 1000;" xml:space="preserve">
<g>
	<path d="M611.5,500l354.8-355.4c30.8-30.8,30.7-80.7-0.1-111.4c-30.8-30.8-80.7-30.8-111.4,0h-0.1L499.9,388.6L144.4,33.8
		c-30.8-30.7-80.6-30.7-111.3,0L33,33.9C2.3,64.6,2.3,114.5,33.1,145.2L388.6,500L33.8,855.5C3,886.3,3.1,936.3,33.9,967
		c30.8,30.8,80.6,30.7,111.4-0.1l0.1-0.1l354.8-355.4l355.4,354.7c30.8,30.8,80.7,30.7,111.4-0.1l0,0c30.8-30.8,30.7-80.7-0.1-111.4
		L611.5,500L611.5,500z"/>
</g>
</svg>
