<?xml version="1.0" encoding="utf-8"?>
<!-- Generator: Adobe Illustrator 21.0.0, SVG Export Plug-In . SVG Version: 6.00 Build 0)  -->
<svg version="1.1" id="Слой_1" xmlns="http://www.w3.org/2000/svg" xmlns:xlink="http://www.w3.org/1999/xlink" x="0px" y="0px"
	 viewBox="0 0 460 460" style="enable-background:new 0 0 460 460;" xml:space="preserve">
<style type="text/css">
	.st0{fill:#FDC64B;}
</style>
<g>
	<path class="st0" d="M449.6,399.8l-95-95c22.9-33.1,34.3-69.5,34.3-110.2c0-26.3-5.1-51.7-15.3-75.5
		c-10.2-24.2-24.2-44.9-41.5-62.3c-17.4-17.4-38.2-31.4-62.3-41.5C245.7,5.1,220.7,0,194.4,0s-51.7,5.1-75.5,15.3
		C94.8,25.4,74,39.4,56.6,56.8S25.2,95,15.1,119.1s-15.3,49.2-15.3,75.5c0,26.3,5.1,51.7,15.3,75.5c10.2,24.2,24.2,44.9,41.5,62.3
		c17.4,17.4,38.2,31.4,62.3,41.5c24.2,10.2,49.2,15.3,75.5,15.3c40.7,0,77.2-11.4,110.2-34.3l95,94.5c6.8,6.8,14.8,10.6,25,10.6
		c9.8,0,17.8-3.4,25-10.6c7.2-7.2,10.6-15.3,10.6-25C460.2,415.1,456.8,406.6,449.6,399.8L449.6,399.8z M282.1,282.4
		c-24.2,24.2-53.4,36.5-87.3,36.5s-63.2-12.3-87.3-36.5S71,228.9,71,195s12.3-63.2,36.5-87.3s53.4-36.5,87.3-36.5
		s63.2,12.3,87.3,36.5s36.5,53.4,36.5,87.3S306.3,258.2,282.1,282.4L282.1,282.4z"/>
</g>
</svg>
